<svg width="37" height="34" viewBox="0 0 37 34" fill="none" xmlns="http://www.w3.org/2000/svg">
<g id="Component 1">
<path id="Vector" d="M32.5818 29.8169C31.7718 29.8169 30.9618 29.8277 30.1518 29.8106C29.8893 29.8051 29.7721 29.889 29.6675 30.1318C28.7856 32.1567 26.6989 33.3346 24.4761 33.0874C22.3392 32.8501 20.5572 31.2003 20.1429 29.0757C19.6619 26.6099 21.1536 24.1664 23.6044 23.4059C26.0119 22.6585 28.6434 23.8389 29.6519 26.1463C29.7825 26.4457 29.9364 26.5049 30.2282 26.5029C31.8607 26.491 33.4933 26.4902 35.126 26.5004C35.9866 26.5057 36.6415 27.0846 36.7769 27.9202C36.9017 28.691 36.4304 29.4703 35.6652 29.7122C35.4338 29.7853 35.1786 29.8084 34.9336 29.8126C34.1494 29.8244 33.3655 29.8166 32.5818 29.8169Z" fill="#E6E6E6"/>
<path id="Vector_2" d="M4.13479 14.9073C4.9448 14.9073 5.75481 14.8955 6.56482 14.9131C6.86098 14.9196 7.01362 14.8493 7.14398 14.5514C7.99499 12.6037 10.0618 11.4029 12.1582 11.6024C14.3445 11.8103 16.1153 13.3373 16.6039 15.4372C17.1861 17.934 15.7579 20.4666 13.3152 21.27C10.8617 22.077 8.18788 20.9184 7.146 18.5742C7.01944 18.2891 6.88376 18.1974 6.57495 18.1997C4.91611 18.2146 3.2572 18.2141 1.5982 18.1982C0.895514 18.1911 0.315851 17.7411 0.0913269 17.0954C-0.0159618 16.7877 -0.0290318 16.4553 0.0537649 16.1403C0.136561 15.8252 0.311518 15.5415 0.556576 15.325C0.882605 15.0364 1.26685 14.9043 1.70426 14.9065C2.51503 14.9106 3.32504 14.9078 4.13479 14.9073Z" fill="#E6E6E6"/>
<path id="Vector_3" d="M31.8075 0.000249031C34.5919 0.0273737 36.8123 2.24005 36.8012 4.97763C36.7898 7.72275 34.4977 9.9648 31.7343 9.93517C28.9709 9.90553 26.7424 7.65594 26.773 4.92539C26.8016 2.1652 29.0428 -0.0268757 31.8075 0.000249031Z" fill="#E6E6E6"/>
<path id="Vector_4" d="M11.691 6.61753C8.37397 6.61753 5.05715 6.61686 1.7405 6.61552C0.580163 6.61326 -0.211621 5.65284 0.0539099 4.57012C0.212115 3.9244 0.640154 3.51527 1.29171 3.35603C1.47927 3.31032 1.6795 3.30028 1.8739 3.30003C8.42907 3.29718 14.9842 3.29793 21.5394 3.30229C21.7963 3.30229 22.0657 3.33268 22.3077 3.41254C23.0546 3.65842 23.5136 4.42118 23.4045 5.18143C23.2898 5.98286 22.6198 6.59342 21.7976 6.61301C21.0015 6.63084 20.2047 6.61828 19.4081 6.61853L11.691 6.61753Z" fill="#E6E6E6"/>
<path id="Vector_5" d="M8.36779 29.8166C6.18633 29.8166 4.00479 29.8166 1.82316 29.8166C0.869122 29.8146 0.193523 29.2932 0.035065 28.4566C-0.00958835 28.224 -0.00318718 27.9846 0.0538318 27.7547C0.110851 27.5247 0.217148 27.3097 0.365484 27.1242C0.51382 26.9387 0.700708 26.787 0.913421 26.6797C1.12613 26.5723 1.35967 26.5117 1.59813 26.5019C1.78064 26.4931 1.9639 26.4984 2.14666 26.4984C6.40528 26.4984 10.6639 26.4984 14.9225 26.4984C15.8173 26.4984 16.4919 26.9871 16.6747 27.7557C16.9344 28.8492 16.1451 29.8066 14.9516 29.8151C13.1752 29.8267 11.3985 29.8182 9.62203 29.8184L8.36779 29.8166Z" fill="#E6E6E6"/>
<path id="Vector_6" d="M28.4065 18.2069C26.199 18.2069 23.9915 18.2157 21.7839 18.2029C20.6241 18.1963 19.8559 17.2181 20.1285 16.1356C20.2953 15.4728 20.8967 14.969 21.5865 14.9168C21.6905 14.909 21.7953 14.9075 21.8999 14.9075C26.2624 14.9075 30.6253 14.9075 34.9883 14.9075C35.953 14.9075 36.6084 15.4166 36.7653 16.267C36.9455 17.2465 36.2322 18.1579 35.2248 18.1953C34.4553 18.2237 33.6837 18.2059 32.9132 18.2064C31.411 18.2076 29.9087 18.2077 28.4065 18.2069Z" fill="#E6E6E6"/>
</g>
</svg>
